<svg viewBox="0 0 110 110" xmlns="http://www.w3.org/2000/svg">
  <!-- Background -->
  <rect width="110" height="110" rx="16" fill="#0A0D18"/>

  <!-- Row 0: all green (top bar of C) -->
  <rect x="9"  y="9"  width="22" height="22" rx="3" fill="#4AE688"/>
  <rect x="34" y="9"  width="22" height="22" rx="3" fill="#4AE688"/>
  <rect x="59" y="9"  width="22" height="22" rx="3" fill="#4AE688"/>
  <rect x="84" y="9"  width="22" height="22" rx="3" fill="#4AE688"/>

  <!-- Row 1: green spine, purple interior -->
  <rect x="9"  y="34" width="22" height="22" rx="3" fill="#4AE688"/>
  <rect x="34" y="34" width="22" height="22" rx="3" fill="#5A1F8A"/>
  <rect x="59" y="34" width="22" height="22" rx="3" fill="#5A1F8A"/>
  <rect x="84" y="34" width="22" height="22" rx="3" fill="#5A1F8A"/>

  <!-- Row 2: green spine, purple interior -->
  <rect x="9"  y="59" width="22" height="22" rx="3" fill="#4AE688"/>
  <rect x="34" y="59" width="22" height="22" rx="3" fill="#5A1F8A"/>
  <rect x="59" y="59" width="22" height="22" rx="3" fill="#5A1F8A"/>
  <rect x="84" y="59" width="22" height="22" rx="3" fill="#5A1F8A"/>

  <!-- Row 3: all green (bottom bar of C) -->
  <rect x="9"  y="84" width="22" height="22" rx="3" fill="#4AE688"/>
  <rect x="34" y="84" width="22" height="22" rx="3" fill="#4AE688"/>
  <rect x="59" y="84" width="22" height="22" rx="3" fill="#4AE688"/>
  <rect x="84" y="84" width="22" height="22" rx="3" fill="#4AE688"/>
</svg>
